<mxfile host="65bd71144e">
    <diagram id="J5IkjGK6F4u4FY2KeY5T" name="Page-1">
        <mxGraphModel dx="1020" dy="590" grid="1" gridSize="10" guides="1" tooltips="1" connect="1" arrows="1" fold="1" page="1" pageScale="1" pageWidth="850" pageHeight="1100" math="0" shadow="0">
            <root>
                <mxCell id="0"/>
                <mxCell id="1" parent="0"/>
                <mxCell id="2" value="" style="rounded=1;whiteSpace=wrap;html=1;" parent="1" vertex="1">
                    <mxGeometry x="160" y="90" width="530" height="340" as="geometry"/>
                </mxCell>
                <mxCell id="4" value="motor" style="edgeStyle=none;html=1;entryX=0.5;entryY=1;entryDx=0;entryDy=0;" parent="1" target="2" edge="1">
                    <mxGeometry relative="1" as="geometry">
                        <mxPoint x="450" y="480" as="targetPoint"/>
                        <Array as="points">
                            <mxPoint x="820" y="480"/>
                            <mxPoint x="425" y="480"/>
                        </Array>
                        <mxPoint x="840" y="480" as="sourcePoint"/>
                    </mxGeometry>
                </mxCell>
                <mxCell id="11" style="edgeStyle=none;html=1;exitX=0.5;exitY=1;exitDx=0;exitDy=0;entryX=0.5;entryY=1;entryDx=0;entryDy=0;" edge="1" parent="1" source="2" target="7">
                    <mxGeometry relative="1" as="geometry"/>
                </mxCell>
                <mxCell id="9" style="edgeStyle=none;html=1;entryX=0.5;entryY=0;entryDx=0;entryDy=0;" parent="1" source="7" target="2" edge="1">
                    <mxGeometry relative="1" as="geometry"/>
                </mxCell>
                <mxCell id="7" value="function(input state, motor) -&amp;gt; output state" style="rounded=1;whiteSpace=wrap;html=1;" parent="1" vertex="1">
                    <mxGeometry x="283" y="220" width="285" height="60" as="geometry"/>
                </mxCell>
                <mxCell id="10" value="sensory" style="endArrow=classic;html=1;exitX=0.5;exitY=0;exitDx=0;exitDy=0;" parent="1" source="2" edge="1">
                    <mxGeometry width="50" height="50" relative="1" as="geometry">
                        <mxPoint x="350" y="-60" as="sourcePoint"/>
                        <mxPoint x="721.388916015625" y="40" as="targetPoint"/>
                        <Array as="points">
                            <mxPoint x="425" y="40"/>
                        </Array>
                    </mxGeometry>
                </mxCell>
            </root>
        </mxGraphModel>
    </diagram>
</mxfile>